<svg width="365" height="410" viewBox="0 0 365 410" fill="none" xmlns="http://www.w3.org/2000/svg">
<circle cx="182.5" cy="182.5" r="180" fill="white" stroke="black" stroke-width="5"/>
<path d="M128 136C110 147.5 93.5 162.5 82 182.5C73.8333 180 54.85 170 51 156C45.5 136 54.5 104.733 75.5 97.5C120.5 82 128 121 128 136Z" fill="#392218" stroke="#2C1B14"/>
<path d="M236 136.076C254 147.576 270.5 162.576 282 182.576C290.167 180.076 309.15 170.076 313 156.076C318.5 136.076 309.5 104.809 288.5 97.576C243.5 82.076 236 121.076 236 136.076Z" fill="#392218" stroke="#2C1B14"/>
<path d="M65.5 323C40.7 282.6 59.5 227.833 72 205.5C86 269 118 271.5 148 243C153 238 158.5 234.5 164.5 234.5H200C204 234.5 208 236.5 211 239.5C267 295.5 288 228.5 293 206C307.5 243 320.5 279 300.5 323C299.5 318.5 295.5 310.5 293 310.5C292 349 267 369 253.5 381.5C251 375 248.5 373.5 245.5 371.5C187.5 436.5 149 403 117.5 372C112.5 375 111.833 376.5 110.5 380.5C88 359.5 74.5 350 71 309.5C68 313 66.5 316.5 65.5 323Z" fill="#392218" stroke="#2C1B14"/>
</svg>
