<svg xmlns="http://www.w3.org/2000/svg" viewBox="0 0 512 512"><path d="M215.5,156h10a190,190,0,0,1,190,190v40a40,40,0,0,1-40,40H81.5a56,56,0,0,1-56-56V346a190,190,0,0,1,190-190Z" fill="#f19b40"/><path d="M307.412,368.518,122.037,262.374l-13.272-11.511c-9.5-8.237-9.5-21.489,0-29.726l13.272-11.511-7.12-14.937c-5.12-10.74.813-23.01,13.295-27.5l17.364-6.242.105-16.177c.076-11.585,11.014-20.961,24.53-21.026l18.874-.09,7.282-14.883c5.235-10.7,19.55-15.784,32.079-11.4l17.426,6.1L259.3,92.105c9.61-8.14,25.071-8.14,34.68,0l13.43,11.377,17.426-6.1c12.53-4.388,26.845.7,32.08,11.4l7.282,14.883,18.874.091c13.516.065,24.454,9.44,24.53,21.026l.105,16.177,17.363,6.241c12.482,4.487,18.415,16.758,13.3,27.5l-7.12,18.937Z" fill="#8bc932"/><path d="M432.83,209.42l-1.58,4.21L307.41,368.52,122.04,262.37l-13.28-11.51c-.3-.26-.58-.52-.86-.79a21,21,0,0,1-2.07-2.28c-.1-.14-.21-.28-.32-.43a5.817,5.817,0,0,1-.38-.53A190,190,0,0,1,276,140h10A189.613,189.613,0,0,1,432.83,209.42Z" fill="#80b524"/><path d="M257,123.959a75,75,0,1,0,75,75A75,75,0,0,0,257,123.959Zm0,120a45,45,0,1,1,45-45A45.05,45.05,0,0,1,257,243.959Z" fill="#f3eade"/><path d="M175.838,243.077l-.148.03h0c10.451,9.966.1,27.178-13.6,22.619l-.016,0,0,.015c4.077,13.854-13.486,23.6-23.081,12.8h0l-.036.146c-3.405,14.026-23.472,13.676-26.387-.46l-.03-.148h0c-9.966,10.451-27.178.1-22.619-13.6l0-.016-.015,0c-13.854,4.077-23.6-13.486-12.8-23.081h0l-.146-.035c-14.026-3.406-13.676-23.473.46-26.388l.148-.03h0c-10.451-9.966-.1-27.178,13.6-22.619l.015.005,0-.015c-4.078-13.854,13.486-23.6,23.081-12.8h0l.035-.146c3.406-14.026,23.473-13.676,26.388.46l.03.148h0c9.966-10.451,27.178-.1,22.619,13.6l0,.016.015,0c13.854-4.077,23.6,13.486,12.8,23.081h0l.146.036C190.324,220.1,189.974,240.162,175.838,243.077Z" fill="#8b6838"/><circle cx="130" cy="346" r="79.981" fill="#f15d40"/><circle cx="130" cy="346" r="49.646" fill="#dc4f3c"/><path d="M296.5,156h-10c-104.934,0-190,85.066-190,190v65a15.005,15.005,0,0,1-15,15h365a40,40,0,0,0,40-40V346C486.5,241.066,401.434,156,296.5,156Z" fill="#ffcb80"/><circle cx="244.715" cy="316.808" r="7.5" fill="#ffb355"/><circle cx="397.112" cy="256.894" r="7.5" fill="#ffb355"/><circle cx="366.216" cy="394.308" r="7.5" fill="#ffb355"/><circle cx="297.56" cy="201.459" r="7.5" fill="#ffb355"/><circle cx="229.653" cy="253.903" r="15" fill="#ffb355"/><circle cx="332.733" cy="318.903" r="15" fill="#ffb355"/><circle cx="171.698" cy="366.702" r="15" fill="#ffb355"/><path d="M306.5,156.26c-100.28,5.2-180,88.16-180,189.74v65a15,15,0,0,1-15,15h-30a15.005,15.005,0,0,0,15-15V346c0-104.934,85.066-190,190-190h10C299.85,156,303.19,156.09,306.5,156.26Z" fill="#ffb355"/><path d="M484.738,286.059a7.5,7.5,0,0,0-14.3,4.547A182.452,182.452,0,0,1,479,346v40a32.536,32.536,0,0,1-32.5,32.5H102.715A22.407,22.407,0,0,0,104,411V383.923a7.53,7.53,0,0,0,0-2.369V346a182.3,182.3,0,0,1,25.314-92.789,7.5,7.5,0,0,0-12.91-7.638q-4.548,7.689-8.346,15.747a88.8,88.8,0,0,0-10.642,3.47,7.5,7.5,0,0,0-9.62-7.518,6.024,6.024,0,0,1-5.7-10.281,7.5,7.5,0,0,0-3.2-12.891l-.156-.038a6.024,6.024,0,0,1,.24-11.76l.147-.031a7.5,7.5,0,0,0,3.627-12.766,6.024,6.024,0,0,1,6.035-10.084,7.506,7.506,0,0,0,9.6-9.236,6.023,6.023,0,0,1,10.28-5.7,7.5,7.5,0,0,0,12.893-3.208l.036-.152a6.024,6.024,0,0,1,11.763.25l.031.147a7.5,7.5,0,0,0,12.764,3.617,6.024,6.024,0,0,1,10.087,6.024,7.483,7.483,0,0,0,.5,5.95,199.176,199.176,0,0,0-22.279,22.837,7.5,7.5,0,1,0,11.543,9.579A182.085,182.085,0,0,1,286.5,163.5h10a182.375,182.375,0,0,1,155.136,86.331,7.5,7.5,0,0,0,12.742-7.915,198.1,198.1,0,0,0-24.027-31.193l4.932-13.118a25.711,25.711,0,0,0,.45-20.8,30.454,30.454,0,0,0-18.124-16.674l-12.434-4.47-.071-10.94c-.1-15.618-14.454-28.393-31.994-28.477l-14.219-.068-5.236-10.7c-6.943-14.19-25.087-20.856-41.295-15.178l-13.376,4.684-10.154-8.6c-12.442-10.539-31.933-10.539-44.376,0l-10.154,8.6L230.925,90.3c-16.212-5.679-34.353.988-41.3,15.178l-5.236,10.7-14.219.068c-17.539.085-31.892,12.859-31.994,28.477a7.5,7.5,0,0,0,7.451,7.549h.05a7.5,7.5,0,0,0,7.5-7.451c.048-7.44,7.7-13.53,17.067-13.575l18.873-.09a7.5,7.5,0,0,0,6.7-4.2l7.282-14.882c3.537-7.229,14.008-10.716,22.863-7.614l17.426,6.1a7.5,7.5,0,0,0,7.327-1.356l13.429-11.376c6.772-5.736,18.212-5.736,24.986,0L302.564,109.2a7.5,7.5,0,0,0,7.327,1.356l17.427-6.1c8.857-3.1,19.327.384,22.864,7.614l7.282,14.883a7.5,7.5,0,0,0,6.7,4.2l18.874.091c9.361.045,17.018,6.134,17.066,13.575L400.209,161a7.5,7.5,0,0,0,4.963,7.009l17.363,6.241a15.48,15.48,0,0,1,9.327,8.268,10.76,10.76,0,0,1-.265,8.944c-.091.192-.175.388-.25.588l-2.7,7.19A196.344,196.344,0,0,0,323.689,150.4a82.5,82.5,0,0,0-147.451,31.724q-2.5,1.688-4.961,3.451a21.271,21.271,0,0,0-27.428-16.317,21.277,21.277,0,0,0-32.34-.565,21.28,21.28,0,0,0-28.045,15.622,21.287,21.287,0,0,0-16.6,27.49,20.5,20.5,0,0,0-7.5,13.257A195.372,195.372,0,0,0,18,346v24a63.572,63.572,0,0,0,63.5,63.5h365A47.554,47.554,0,0,0,494,386V346A197.441,197.441,0,0,0,484.738,286.059ZM257,131.459a67.582,67.582,0,0,1,44.914,17.129c-1.8-.05-3.607-.088-5.414-.088h-10a197.173,197.173,0,0,0-90.781,22.064A67.375,67.375,0,0,1,257,131.459ZM89,355.941a41.907,41.907,0,0,1,.335-21.04c-.207,3.69-.335,7.39-.335,11.1Zm5.055-54.333A57.074,57.074,0,0,0,89,385.8v19.969a72.511,72.511,0,0,1,11.411-125.962A197.4,197.4,0,0,0,94.055,301.608ZM33,370V346A180.4,180.4,0,0,1,64.927,242.842c.438.452.893.889,1.374,1.3a21.289,21.289,0,0,0,15.618,28.05c.031.193.074.384.111.576a87.524,87.524,0,0,0-.985,145.72A48.549,48.549,0,0,1,33,370Z" fill="#525651"/><circle cx="469.2" cy="266.639" r="7.5" fill="#525651"/></svg>