<svg xmlns="http://www.w3.org/2000/svg" viewBox="0 0 512 512"><path d="M245.193,89.838a78.387,78.387,0,0,0,155.448,7.81,15.025,15.025,0,0,0-15.824-17.575Z" fill="#ffc443"/><path d="M468.573,119.167h0c-99.347-16.8-156.262,39.892-139.7,139.139l.081.481.481.081C428.681,275.429,485.368,218.514,468.573,119.167Z" fill="#8bc932"/><path d="M311.5,283.74a7.5,7.5,0,0,1-5.3-12.8l130.895-130.9A7.5,7.5,0,0,1,447.7,150.649L316.8,281.543A7.478,7.478,0,0,1,311.5,283.74Z" fill="#80b524"/><path d="M461.24,205c-19.65,43.86-66.52,64.76-131.81,53.87l-.48-.08-.08-.48c-3.25-19.49-3.67-37.34-1.49-53.31Z" fill="#80b524"/><circle cx="396.5" cy="217.016" r="35" fill="#ffac3e"/><path d="M431.5,217.02A35,35,0,1,1,363.62,205h65.76A34.968,34.968,0,0,1,431.5,217.02Z" fill="#f99e32"/><path d="M276.684,211.474a47.168,47.168,0,0,0-14.64-76.654A47.172,47.172,0,0,0,197.68,70.456a47.168,47.168,0,0,0-76.654-14.64,47.171,47.171,0,0,0-66.71,66.71,47.168,47.168,0,0,0,14.64,76.654,47.172,47.172,0,0,0,64.364,64.364,47.168,47.168,0,0,0,76.654,14.64,47.171,47.171,0,0,0,66.71-66.71Z" fill="#8bc932"/><path d="M216.754,262.8c-.174,0-.349-.006-.525-.019a7.5,7.5,0,0,1-6.965-8c1.944-28.152-5.829-58.184-21.887-84.564-20.332-33.4-52.841-60.663-96.624-81.028a7.5,7.5,0,1,1,6.326-13.6c46.519,21.637,81.21,50.85,103.111,86.829,17.658,29.007,26.194,62.175,24.039,93.4A7.5,7.5,0,0,1,216.754,262.8Z" fill="#80b524"/><path d="M276.68,278.18a47.156,47.156,0,0,1-66.71,0,47.161,47.161,0,0,1-76.65-14.64A47.16,47.16,0,0,1,66.15,205H282.1a47.669,47.669,0,0,1-5.42,6.47A47.156,47.156,0,0,1,276.68,278.18Z" fill="#80b524"/><path d="M178,144.147a90,90,0,1,0,90,90A89.994,89.994,0,0,0,178,144.147Zm0,150a60,60,0,1,1,60-60A60.066,60.066,0,0,1,178,294.147Z" fill="#f3eade"/><path d="M263.17,205H230.43a60,60,0,1,1-104.86,0H92.83a90,90,0,1,0,170.34,0Z" fill="#f1ddc8"/><circle cx="278" cy="199.516" r="90" fill="#f15d40"/><circle cx="278" cy="199.516" r="60" fill="#da4f3c"/><circle cx="278" cy="164.516" r="7.5" fill="#ffcb80"/><circle cx="308" cy="189.516" r="7.5" fill="#ffcb80"/><circle cx="248" cy="189.516" r="7.5" fill="#ffcb80"/><path d="M367.83,205a90,90,0,0,1-179.66,0Z" fill="#da4f3c"/><path d="M337.75,205a60,60,0,0,1-119.5,0Z" fill="#cc4032"/><path d="M381,440v15a15.005,15.005,0,0,1-15,15H146a15.005,15.005,0,0,1-15-15V440Z" fill="#92bccd"/><path d="M25.5,340V230a10,10,0,0,1,10-10h441a10,10,0,0,1,10,10V340a100,100,0,0,1-100,100h-261A100,100,0,0,1,25.5,340Z" fill="#e8f2f8"/><path d="M165.5,440h-40a100,100,0,0,1-100-100V230a10,10,0,0,1,10-10h30V340A100,100,0,0,0,165.5,440Z" fill="#acd1e4"/><path d="M476.5,212.5H465.966c12.762-25.331,16.234-57.717,10-94.583a7.5,7.5,0,0,0-6.146-6.145c-23.769-4.019-45.692-3.942-65.051.014a85.307,85.307,0,0,0,3.26-12.861,22.528,22.528,0,0,0-23.738-26.334l-94.317,6.6a7.5,7.5,0,0,0,1.046,14.964l94.318-6.6a7.349,7.349,0,0,1,6.056,2.436,7.573,7.573,0,0,1,1.85,6.4,70.321,70.321,0,0,1-6.972,20.642,101.611,101.611,0,0,0-33.392,20.113A97.332,97.332,0,0,0,278,102.016c-1.017,0-2.029.02-3.038.052a54.677,54.677,0,0,0-73.983-41.5,54.693,54.693,0,0,0-79.953-14.726,54.682,54.682,0,0,0-76.684,76.682,54.014,54.014,0,0,0-8.133,14.869,7.5,7.5,0,1,0,14.119,5.063,39.314,39.314,0,0,1,9.291-14.627,7.5,7.5,0,0,0,0-10.607,39.671,39.671,0,0,1,56.1-56.1,7.5,7.5,0,0,0,10.607,0,39.666,39.666,0,0,1,64.464,12.31,7.5,7.5,0,0,0,10.611,3.536A39.656,39.656,0,0,1,260,103.689a97.609,97.609,0,0,0-58.75,35.766,97.6,97.6,0,0,0-19.945-2.747c-21.264-24.439-49.572-45-84.222-61.117a7.5,7.5,0,1,0-6.326,13.6c28.551,13.28,52.458,29.664,71.293,48.791A97.413,97.413,0,0,0,82.936,212.5H71.565a39.608,39.608,0,0,1,3.9-9.594A7.5,7.5,0,0,0,71.93,192.3a39.681,39.681,0,0,1-23.262-29.139A7.5,7.5,0,0,0,33.92,165.89a54.735,54.735,0,0,0,25.155,36.592A55.235,55.235,0,0,0,56.188,212.5H35.5A17.52,17.52,0,0,0,18,230V340A107.622,107.622,0,0,0,123.5,447.475V455A22.526,22.526,0,0,0,146,477.5H366A22.526,22.526,0,0,0,388.5,455v-7.525A107.622,107.622,0,0,0,494,340V328.569a7.5,7.5,0,1,0-15,0V340a92.6,92.6,0,0,1-92.5,92.5H210.067a7.5,7.5,0,0,0,0,15H373.5V455a7.509,7.509,0,0,1-7.5,7.5H146a7.509,7.509,0,0,1-7.5-7.5v-7.5h43.331a7.5,7.5,0,1,0,0-15H125.5A92.6,92.6,0,0,1,33,340V277.5H378.634a7.5,7.5,0,0,0,0-15H33V230a2.5,2.5,0,0,1,2.5-2.5h441A2.5,2.5,0,0,1,479,230v32.5H404.557a7.5,7.5,0,0,0,0,15H479v7.5a7.5,7.5,0,0,0,15,0V230A17.52,17.52,0,0,0,476.5,212.5Zm-14.49-86.768c5.015,34.871.47,64.7-13.218,86.768H438.738a42.555,42.555,0,0,0-20.757-32.134L447.7,150.649a7.5,7.5,0,0,0-10.607-10.607l-34.87,34.87a42.433,42.433,0,0,0-28.474,6.18,96.856,96.856,0,0,0-12.1-31.615C384.135,127.976,419.37,119.616,462.01,125.732ZM375.5,199.266A27.5,27.5,0,0,1,423.623,212.5H374.635a98.558,98.558,0,0,0,.865-12.984C375.5,199.432,375.5,199.349,375.5,199.266ZM278,117.016A82.536,82.536,0,0,1,359.478,212.5H344.232a67.5,67.5,0,1,0-133.478-18.857,7.5,7.5,0,1,0,14.943,1.295A52.5,52.5,0,1,1,328.874,212.5H196.522A82.536,82.536,0,0,1,278,117.016ZM181.365,212.5h-51.2A52.472,52.472,0,0,1,178,181.647c1.375,0,2.745.073,4.112.18a97.868,97.868,0,0,0-.747,30.673Zm-56.982-41.059a82.55,82.55,0,0,1,68-18.534,97.119,97.119,0,0,0-6.347,14.231A67.379,67.379,0,0,0,114.066,212.5H98.387A82.671,82.671,0,0,1,124.383,171.441Z" fill="#525651"/><circle cx="486.5" cy="306.76" r="7.5" fill="#525651"/></svg>