<svg xmlns="http://www.w3.org/2000/svg" viewBox="0 0 512 512"><rect x="25.5" y="240.5" width="461" height="100" rx="40" fill="#8b6838"/><path d="M481.15,320.5a39.99,39.99,0,0,1-34.65,20H65.5a39.99,39.99,0,0,1-34.65-20Z" fill="#80633f"/><path d="M95.5,340.5h-30a40,40,0,0,1-40-40v-20a40,40,0,0,1,40-40h30a40,40,0,0,0-40,40v20A40,40,0,0,0,95.5,340.5Z" fill="#80633f"/><rect x="25.5" y="340.5" width="461" height="46" rx="15" fill="#ef5d40"/><path d="M486.5,366.5v5a15.005,15.005,0,0,1-15,15H40.5a15.005,15.005,0,0,1-15-15v-5Z" fill="#dc4f3c"/><rect x="248.5" y="340.5" width="15" height="46" fill="#dc4f3c"/><path d="M70.5,386.5h-30a15.005,15.005,0,0,1-15-15v-16a15.005,15.005,0,0,1,15-15h30a15.005,15.005,0,0,0-15,15v16A15.005,15.005,0,0,0,70.5,386.5Z" fill="#dc4f3c"/><path d="M456,205.5H56a15,15,0,0,1-15-15v-55a110,110,0,0,1,110-110H361a110,110,0,0,1,110,110v55A15,15,0,0,1,456,205.5Z" fill="#ffb355"/><path d="M71,135.5v55a15.005,15.005,0,0,0,15,15H56a15.005,15.005,0,0,1-15-15v-55a110,110,0,0,1,110-110h30A110,110,0,0,0,71,135.5Z" fill="#f39d40"/><circle cx="188.5" cy="83" r="7.5" fill="#ffcb80"/><circle cx="323.5" cy="83" r="7.5" fill="#ffcb80"/><circle cx="256" cy="63" r="7.5" fill="#ffcb80"/><path d="M486.5,245.5v.821c0,21.55-17.636,39.59-39.181,39.172A38.411,38.411,0,0,1,409.67,247.08a38.42,38.42,0,0,1-76.84,0,38.415,38.415,0,1,1-76.83,0,38.415,38.415,0,1,1-76.83,0,38.42,38.42,0,1,1-76.84,0,38.415,38.415,0,1,1-76.83,0V245.5a40,40,0,0,1,40-40h381A40,40,0,0,1,486.5,245.5Z" fill="#8bc932"/><path d="M55.5,245.5v1.58a38.414,38.414,0,0,0,23.42,35.38A38.438,38.438,0,0,1,25.5,247.08V245.5a40,40,0,0,1,40-40h30A40,40,0,0,0,55.5,245.5Z" fill="#80b524"/><path d="M299.8,297.366,162,205.5H382l-61.591,87.988A15,15,0,0,1,299.8,297.366Z" fill="#f9d36b"/><path d="M431,486.5H81a40,40,0,0,1-40-40v-45a15,15,0,0,1,15-15H456a15,15,0,0,1,15,15v45A40,40,0,0,1,431,486.5Z" fill="#ffb355"/><path d="M111,486.5H81a40,40,0,0,1-40-40v-45a15.005,15.005,0,0,1,15-15H86a15.005,15.005,0,0,0-15,15v45A40,40,0,0,0,111,486.5Z" fill="#f39d40"/><path d="M494,245.5a47.488,47.488,0,0,0-21.5-39.723,22.412,22.412,0,0,0,6-15.277V178.7a7.5,7.5,0,1,0-15,0v11.8A7.509,7.509,0,0,1,456,198H319a7.5,7.5,0,0,0,0,15h48.6l-35.056,50.08-.05.072-18.224,26.035a7.545,7.545,0,0,1-10.305,1.939L186.771,213H290.777a7.5,7.5,0,0,0,0-15H56a7.509,7.509,0,0,1-7.5-7.5v-55A102.616,102.616,0,0,1,151,33H361A102.616,102.616,0,0,1,463.5,135.5a7.5,7.5,0,0,0,15,0A117.633,117.633,0,0,0,361,18H151A117.633,117.633,0,0,0,33.5,135.5v55a22.412,22.412,0,0,0,6,15.277A47.488,47.488,0,0,0,18,245.5v.821a46.783,46.783,0,0,0,3.227,16.965A47.123,47.123,0,0,0,18,280.5v20a47.349,47.349,0,0,0,14.4,34.016A22.534,22.534,0,0,0,18,355.5v16a22.536,22.536,0,0,0,17.043,21.827A22.381,22.381,0,0,0,33.5,401.5v45A47.554,47.554,0,0,0,81,494H431a47.554,47.554,0,0,0,47.5-47.5v-45a22.381,22.381,0,0,0-1.543-8.173A22.536,22.536,0,0,0,494,371.5v-16a22.534,22.534,0,0,0-14.395-20.984A47.349,47.349,0,0,0,494,300.5v-20a47.082,47.082,0,0,0-3.23-17.207A46.781,46.781,0,0,0,494,246.321ZM385.905,213h60.6A32.537,32.537,0,0,1,479,245.5v.821a32.2,32.2,0,0,1-9.633,22.837,30.258,30.258,0,0,1-21.9,8.836A31.067,31.067,0,0,1,417.17,247.08a7.5,7.5,0,1,0-15,0,30.914,30.914,0,0,1-54.288,20.238Zm77.6,233.5A32.537,32.537,0,0,1,431,479H81a32.537,32.537,0,0,1-32.5-32.5v-45A7.509,7.509,0,0,1,56,394h55a7.5,7.5,0,0,0,0-15H40.5a7.509,7.509,0,0,1-7.5-7.5v-16a7.509,7.509,0,0,1,7.5-7.5h208v31H138.646a7.5,7.5,0,1,0,0,15H456a7.509,7.509,0,0,1,7.5,7.5Zm15.5-75a7.509,7.509,0,0,1-7.5,7.5h-208V348h208a7.509,7.509,0,0,1,7.5,7.5ZM446.5,333H65.5A32.537,32.537,0,0,1,33,300.5V280.681a45.114,45.114,0,0,0,31.827,12.31,46.019,46.019,0,0,0,37.467-20.84,45.891,45.891,0,0,0,76.875.057,45.908,45.908,0,0,0,60.98,14.871,7.5,7.5,0,1,0-7.38-13.058,30.925,30.925,0,0,1-46.1-26.941,7.5,7.5,0,0,0-15,0,30.92,30.92,0,1,1-61.84,0,7.5,7.5,0,0,0-15,0,31.067,31.067,0,0,1-30.294,30.914,30.256,30.256,0,0,1-21.9-8.836A32.2,32.2,0,0,1,33,246.321V245.5A32.537,32.537,0,0,1,65.5,213h94.229L295.64,303.607a22.284,22.284,0,0,0,12.4,3.735,22.575,22.575,0,0,0,18.517-9.553L339.1,279.866a45.9,45.9,0,0,0,70.608-7.715,46.019,46.019,0,0,0,37.467,20.84A45.124,45.124,0,0,0,479,280.681V300.5A32.537,32.537,0,0,1,446.5,333Z" fill="#525651"/><circle cx="471" cy="157.259" r="7.5" fill="#525651"/></svg>