<?xml version="1.0" encoding="UTF-8" standalone="no"?>
<!-- Created with Inkscape (http://www.inkscape.org/) -->

<svg
   version="1.1"
   id="svg1112"
   width="880"
   height="880"
   viewBox="0 0 880 880"
   sodipodi:docname="duck-chicken-publicdomainvectors.org.svg"
   inkscape:version="1.2 (dc2aedaf03, 2022-05-15)"
   xmlns:inkscape="http://www.inkscape.org/namespaces/inkscape"
   xmlns:sodipodi="http://sodipodi.sourceforge.net/DTD/sodipodi-0.dtd"
   xmlns="http://www.w3.org/2000/svg"
   xmlns:svg="http://www.w3.org/2000/svg">
  <defs
     id="defs1116">
    <clipPath
       clipPathUnits="userSpaceOnUse"
       id="clipPath1128">
      <path
         d="M 0,660 H 660 V 0 H 0 Z"
         id="path1126" />
    </clipPath>
  </defs>
  <sodipodi:namedview
     id="namedview1114"
     pagecolor="#ffffff"
     bordercolor="#000000"
     borderopacity="0.25"
     inkscape:showpageshadow="2"
     inkscape:pageopacity="0.0"
     inkscape:pagecheckerboard="0"
     inkscape:deskcolor="#d1d1d1"
     showgrid="false"
     inkscape:zoom="0.95113636"
     inkscape:cx="440.52569"
     inkscape:cy="440.52569"
     inkscape:window-width="1920"
     inkscape:window-height="1017"
     inkscape:window-x="-8"
     inkscape:window-y="-8"
     inkscape:window-maximized="1"
     inkscape:current-layer="g1120">
    <inkscape:page
       x="0"
       y="0"
       id="page1118"
       width="880"
       height="880" />
  </sodipodi:namedview>
  <g
     id="g1120"
     inkscape:groupmode="layer"
     inkscape:label="Page 1"
     transform="matrix(1.3333333,0,0,-1.3333333,0,880)">
    <g
       id="g1122">
      <g
         id="g1124"
         clip-path="url(#clipPath1128)">
        <g
           id="g1130"
           transform="translate(339.4951,127.3281)">
          <path
             d="M 0,0 C 130.871,0 237.609,106.738 237.609,237.61 237.609,368.48 130.871,475.219 0,475.219 -130.87,475.219 -237.609,368.48 -237.609,237.61 -237.609,106.738 -130.87,0 0,0"
             style="fill:#ccccaf;fill-opacity:1;fill-rule:evenodd;stroke:none"
             id="path1132" />
        </g>
        <g
           id="g1134"
           transform="translate(552.2227,408.5762)">
          <path
             d="m 0,0 c 20.824,0.095 37.676,17.004 37.676,37.851 0,20.905 -16.948,37.852 -37.853,37.852 -12.537,0 -23.649,-6.096 -30.537,-15.484 -4.933,6.134 -11.465,10.928 -18.967,13.742 -0.844,9.288 -5.91,17.357 -13.26,22.273 -0.138,0.494 -0.286,0.983 -0.444,1.467 3.028,3.951 4.828,8.893 4.828,14.256 0,9.161 -5.251,17.096 -12.91,20.957 0.051,0.835 0.08,1.672 0.08,2.519 0,21.454 -16.681,39.008 -37.781,40.407 -2.744,16.391 -16.995,28.883 -34.166,28.883 -19.134,0 -34.644,-15.512 -34.644,-34.645 0,-2.858 0.347,-5.634 0.999,-8.29 -2.702,1.018 -5.629,1.577 -8.687,1.577 -13.608,0 -24.641,-11.031 -24.641,-24.637 0,-8.107 3.916,-15.299 9.959,-19.789 -9.124,-4.741 -15.355,-14.276 -15.355,-25.268 0,-15.717 12.741,-28.459 28.458,-28.459 9.887,0 18.595,5.043 23.696,12.696 5.717,-5.336 13.387,-8.602 21.823,-8.602 6.121,0 11.841,1.72 16.704,4.703 3.679,-8.272 10.658,-14.751 19.264,-17.772 0.51,-0.887 1.063,-1.745 1.657,-2.572 -3.424,-6.282 -5.371,-13.487 -5.371,-21.147 0,-24.438 19.813,-44.25 44.251,-44.25 2.878,0 5.693,0.276 8.415,0.8 6.152,-6.975 15.152,-11.377 25.183,-11.377 C -17.037,-22.309 -4.625,-13 0,0 m -385.573,-9.083 c 12.191,0 22.074,-9.884 22.074,-22.075 0,-4.702 -1.471,-9.061 -3.977,-12.642 4.219,2.221 9.023,3.481 14.121,3.481 15.418,0 28.15,-11.494 30.102,-26.377 8.441,-4.888 14.122,-14.016 14.122,-24.474 0,-10.351 -5.569,-19.401 -13.874,-24.323 2.498,-4.883 3.905,-10.414 3.905,-16.275 0,-3.146 -0.406,-6.196 -1.166,-9.103 12.013,-4.099 21.444,-13.779 25.2,-25.95 3.13,1.003 6.463,1.547 9.926,1.547 13.648,0 25.331,-8.41 30.156,-20.327 29.368,-1.407 52.748,-25.663 52.748,-55.381 0,-30.621 -24.825,-55.445 -55.447,-55.445 -22.744,0 -42.285,13.695 -50.838,33.287 -1.336,-0.151 -2.696,-0.233 -4.076,-0.233 -11.369,0 -21.499,5.314 -28.04,13.593 -2.388,-0.521 -4.87,-0.797 -7.414,-0.797 -19.138,0 -34.653,15.513 -34.653,34.654 0,10.21 4.416,19.387 11.442,25.729 -0.7,2.3 -1.197,4.692 -1.471,7.148 -3.441,-1.266 -7.158,-1.956 -11.038,-1.956 -17.666,0 -31.987,14.323 -31.987,31.988 0,6.276 1.808,12.127 4.929,17.065 -1.872,2.522 -3.283,5.406 -4.105,8.53 -12.997,5.344 -22.15,18.127 -22.15,33.051 0,13.517 7.51,25.28 18.584,31.347 3.09,7.609 8.934,13.804 16.295,17.348 -3.39,3.88 -5.444,8.957 -5.444,14.515 0,12.191 9.883,22.075 22.076,22.075"
             style="fill:#5f992c;fill-opacity:1;fill-rule:evenodd;stroke:none"
             id="path1136" />
        </g>
        <g
           id="g1138"
           transform="translate(288.8994,229.3096)">
          <path
             d="m 0,0 c 17.81,0 32.247,-14.438 32.247,-32.246 0,-14.585 -9.685,-26.905 -22.971,-30.891 1.749,-2.842 2.761,-6.19 2.761,-9.772 0,-10.307 -8.352,-18.659 -18.658,-18.659 -10.305,0 -18.659,8.352 -18.659,18.659 0,5.748 2.599,10.89 6.688,14.312 -8.26,5.84 -13.655,15.465 -13.655,26.351 C -32.247,-14.438 -17.81,0 0,0 m -85.589,-41.455 c 11.451,0 20.733,-9.281 20.733,-20.731 0,-11.448 -9.282,-20.729 -20.733,-20.729 -11.448,0 -20.728,9.281 -20.728,20.729 0,11.45 9.28,20.731 20.728,20.731 m -22.862,77.838 c 12.071,0 22.266,-8.024 25.549,-19.028 2.958,1.267 6.217,1.968 9.639,1.968 13.543,0 24.522,-10.98 24.522,-24.524 0,-13.545 -10.979,-24.524 -24.522,-24.524 -10.464,0 -19.396,6.555 -22.919,15.781 -3.672,-1.908 -7.844,-2.987 -12.269,-2.987 -14.722,0 -26.656,11.935 -26.656,26.657 0,14.722 11.934,26.657 26.656,26.657 m 218.586,286.829 c 11.779,0 21.325,-9.548 21.325,-21.326 0,-11.778 -9.546,-21.326 -21.325,-21.326 -11.777,0 -21.325,9.548 -21.325,21.326 0,11.778 9.548,21.326 21.325,21.326 m 113.022,-47.753 c 11.24,-0.679 20.146,-10.009 20.146,-21.42 0,-11.853 -9.608,-21.461 -21.461,-21.461 -8.525,0 -15.89,4.971 -19.352,12.172 -3.976,-1.657 -8.339,-2.575 -12.917,-2.575 -18.549,0 -33.587,15.036 -33.587,33.587 0,18.55 15.038,33.588 33.587,33.588 18.55,0 33.588,-15.038 33.588,-33.588 z m 31.992,-46.079 c 17.373,0 31.456,-14.084 31.456,-31.456 0,-17.372 -14.083,-31.455 -31.456,-31.455 -17.372,0 -31.455,14.083 -31.455,31.455 0,17.372 14.083,31.456 31.455,31.456 M 149.588,345.603 c 7.655,0 13.86,-6.206 13.86,-13.861 0,-7.656 -6.205,-13.861 -13.86,-13.861 -7.655,0 -13.861,6.205 -13.861,13.861 0,7.655 6.206,13.861 13.861,13.861 m -253.241,-237.78 c 17.961,0 32.521,-14.56 32.521,-32.52 0,-17.961 -14.56,-32.522 -32.521,-32.522 -17.96,0 -32.521,14.561 -32.521,32.522 0,17.96 14.561,32.52 32.521,32.52"
             style="fill:#7cb54b;fill-opacity:1;fill-rule:evenodd;stroke:none"
             id="path1140" />
        </g>
        <g
           id="g1142"
           transform="translate(465.0762,447.2266)">
          <path
             d="m 0,0 c -25.331,-11.327 -31.961,-51.608 -14.809,-89.967 6.079,-13.593 14.329,-25.119 23.577,-33.833 10.92,-10.293 18.625,-20.828 25.127,-34.354 l 4.527,-9.416 c 7.056,-14.679 10.374,-28.554 10.721,-44.84 0.068,-3.207 0.766,-6.456 2.158,-9.569 5.583,-12.484 20.228,-18.081 32.714,-12.498 12.484,5.583 18.08,20.231 12.497,32.714 -0.431,0.963 -0.915,1.887 -1.448,2.765 -16.454,27.116 -20.317,56.706 -11.378,87.14 5.153,17.548 3.235,40.558 -6.761,62.914 C 59.772,-10.587 25.331,11.327 0,0 m -205.483,-205.485 c 11.325,25.331 51.605,31.96 89.962,14.808 13.595,-6.079 25.122,-14.33 33.835,-23.574 10.293,-10.924 20.828,-18.627 34.353,-25.13 l 9.416,-4.526 c 14.683,-7.058 28.556,-10.373 44.842,-10.72 3.207,-0.069 6.456,-0.768 9.569,-2.159 12.484,-5.583 18.078,-20.229 12.497,-32.714 -5.583,-12.484 -20.23,-18.08 -32.714,-12.497 -0.963,0.431 -1.886,0.915 -2.764,1.447 -27.118,16.454 -56.708,20.318 -87.142,11.38 -17.546,-5.154 -40.555,-3.236 -62.911,6.76 -38.359,17.153 -60.273,51.594 -48.943,76.925"
             style="fill:#c49520;fill-opacity:1;fill-rule:evenodd;stroke:none"
             id="path1144" />
        </g>
        <g
           id="g1146"
           transform="translate(337.46,493.208)">
          <path
             d="m 0,0 c -9.979,1.031 -19.049,11.268 -22.122,40.741 -3.074,29.474 3.538,66.765 10.992,65.995 7.454,-0.77 22.072,-40.253 25.146,-69.727 C 17.087,7.535 9.979,-1.03 0,0"
             style="fill:#ad8318;fill-opacity:1;fill-rule:evenodd;stroke:none"
             id="path1148" />
        </g>
        <g
           id="g1150"
           transform="translate(275.1045,614.7764)">
          <path
             d="m 0,0 c -11.399,-7.721 -14.308,-26.13 5.55,-64.227 19.859,-38.095 57.847,-79.498 66.359,-73.731 8.514,5.768 -5.223,63.595 -25.081,101.691 C 26.971,1.829 11.398,7.721 0,0"
             style="fill:#c49520;fill-opacity:1;fill-rule:evenodd;stroke:none"
             id="path1152" />
        </g>
        <g
           id="g1154"
           transform="translate(213.6094,369.3574)">
          <path
             d="m 0,0 c -1.031,9.979 -11.267,19.049 -40.742,22.122 -29.474,3.073 -66.765,-3.539 -65.994,-10.992 0.77,-7.454 40.253,-22.072 69.726,-25.144 C -7.535,-17.087 1.031,-9.978 0,0"
             style="fill:#ad8318;fill-opacity:1;fill-rule:evenodd;stroke:none"
             id="path1156" />
        </g>
        <g
           id="g1158"
           transform="translate(92.041,431.7139)">
          <path
             d="m 0,0 c 7.721,11.398 26.13,14.306 64.227,-5.553 38.095,-19.857 79.497,-57.844 73.731,-66.357 -5.769,-8.515 -63.596,5.222 -101.692,25.081 C -1.829,-26.972 -7.72,-11.398 0,0"
             style="fill:#c49520;fill-opacity:1;fill-rule:evenodd;stroke:none"
             id="path1160" />
        </g>
        <g
           id="g1162"
           transform="translate(349.1396,506.8452)">
          <path
             d="m 0,0 c 34.539,4.587 78.11,-12.243 112.935,-47.066 49.691,-49.692 62.753,-117.205 29.206,-150.849 -9.677,-9.705 -11.798,-24.012 -5.348,-36.107 10.187,-19.097 10.431,-39.244 -1.133,-50.806 -11.561,-11.563 -31.709,-11.32 -50.806,-1.133 -12.094,6.451 -26.402,4.332 -36.108,-5.347 -33.641,-33.549 -101.156,-20.485 -150.847,29.208 -34.823,34.822 -51.654,78.394 -47.067,112.931 -15.426,6.036 -30.943,16.098 -44.675,29.83 -37.924,37.925 -47.879,89.458 -22.233,115.103 5.303,5.303 11.715,9.084 18.885,11.409 20.003,6.487 34.364,20.848 40.85,40.851 2.326,7.169 6.106,13.582 11.409,18.886 25.646,25.645 77.179,15.691 115.103,-22.234 C -16.095,30.944 -6.034,15.426 0,0"
             style="fill:#e8b73c;fill-opacity:1;fill-rule:evenodd;stroke:none"
             id="path1164" />
        </g>
        <g
           id="g1166"
           transform="translate(349.1396,506.8452)">
          <path
             d="m 0,0 c 34.539,4.587 78.11,-12.243 112.935,-47.066 49.691,-49.692 62.753,-117.205 29.206,-150.849 -9.679,-9.705 -11.798,-24.012 -5.346,-36.107 10.185,-19.097 10.429,-39.244 -1.135,-50.806 -11.561,-11.563 -31.709,-11.32 -50.806,-1.133 -12.094,6.451 -26.402,4.332 -36.108,-5.347 -4.339,-4.328 -9.247,-7.874 -14.602,-10.671 0.859,1.298 1.753,2.663 2.684,4.103 9.469,13.144 17.597,21.271 33.645,25.8 29.445,8.312 40.843,0.487 35.967,36.189 -8.861,64.865 29.901,88.243 -25.587,149.631 -27.334,26.239 -59.389,39.545 -97.491,36.533 -0.214,30.202 -11.545,60.271 -29.949,84.043 -10.844,12.701 -22.311,22.84 -38.545,28.003 -30.829,9.081 -45.334,-2.524 -62.761,-26.491 -17.598,-24.199 -33.226,-29.476 -46.89,-27.828 18.748,6.834 32.22,20.83 38.442,40.02 2.326,7.169 6.106,13.582 11.409,18.886 25.646,25.645 77.179,15.691 115.103,-22.234 C -16.095,30.944 -6.034,15.426 0,0"
             style="fill:#dba828;fill-opacity:1;fill-rule:evenodd;stroke:none"
             id="path1168" />
        </g>
        <g
           id="g1170"
           transform="translate(372.6416,237.1543)">
          <path
             d="m 0,0 c -26.879,-33.009 -74.324,-17.455 -102.445,5.279 -31.784,25.696 -66.235,67.298 -53.226,110.956 1.467,4.92 3.153,8.856 5.163,13.546 -36.795,17.632 -76.512,45.056 -86.16,87.209 -4.989,25.971 13.712,30.525 33.998,19.195 27.753,-15.773 28.199,-28.136 63.016,-40.362 44.501,-15.625 51.211,-26.49 58.759,-69.928 C -71.556,72.168 -45.796,76.734 -6.722,48.98 12.911,34.764 12.484,19.054 0,0"
             style="fill:#f0c24d;fill-opacity:1;fill-rule:evenodd;stroke:none"
             id="path1172" />
        </g>
      </g>
    </g>
  </g>
</svg>
